<?xml version="1.0" encoding="UTF-8" standalone="no"?>
<svg
   xmlns:dc="http://purl.org/dc/elements/1.1/"
   xmlns:cc="http://creativecommons.org/ns#"
   xmlns:rdf="http://www.w3.org/1999/02/22-rdf-syntax-ns#"
   xmlns:svg="http://www.w3.org/2000/svg"
   xmlns="http://www.w3.org/2000/svg"
   version="1.1"
   id="Capa_1"
   x="0px"
   y="0px"
   viewBox="0 0 19.999999 22.887189"
   xml:space="preserve"
   width="20"
   height="22.88719"><metadata
   id="metadata43"><rdf:RDF><cc:Work
       rdf:about=""><dc:format>image/svg+xml</dc:format><dc:type
         rdf:resource="http://purl.org/dc/dcmitype/StillImage" /><dc:title></dc:title></cc:Work></rdf:RDF></metadata><defs
   id="defs41" />
<g
   id="g6"
   transform="matrix(0.04468653,0,0,0.04468653,-1.4435579,0)"
   style="fill:#8d5b3a;fill-opacity:1;stroke-width:22.3781">
	<g
   id="g4"
   style="fill:#8d5b3a;fill-opacity:1;stroke-width:22.3781">
		<path
   d="m 479.046,283.925 c -1.664,-3.989 -5.547,-6.592 -9.856,-6.592 H 352.305 V 10.667 C 352.305,4.779 347.526,0 341.638,0 H 170.971 c -5.888,0 -10.667,4.779 -10.667,10.667 V 277.334 H 42.971 c -4.309,0 -8.192,2.603 -9.856,6.571 -1.643,3.989 -0.747,8.576 2.304,11.627 l 212.8,213.504 c 2.005,2.005 4.715,3.136 7.552,3.136 2.837,0 5.547,-1.131 7.552,-3.115 L 476.742,295.553 c 3.051,-3.052 3.968,-7.638 2.304,-11.628 z"
   id="path2"
   style="fill:#8d5b3a;fill-opacity:1;stroke-width:22.3781" />
	</g>
</g>
<g
   id="g8"
   transform="translate(-246.08517,-244.6424)">
</g>
<g
   id="g10"
   transform="translate(-246.08517,-244.6424)">
</g>
<g
   id="g12"
   transform="translate(-246.08517,-244.6424)">
</g>
<g
   id="g14"
   transform="translate(-246.08517,-244.6424)">
</g>
<g
   id="g16"
   transform="translate(-246.08517,-244.6424)">
</g>
<g
   id="g18"
   transform="translate(-246.08517,-244.6424)">
</g>
<g
   id="g20"
   transform="translate(-246.08517,-244.6424)">
</g>
<g
   id="g22"
   transform="translate(-246.08517,-244.6424)">
</g>
<g
   id="g24"
   transform="translate(-246.08517,-244.6424)">
</g>
<g
   id="g26"
   transform="translate(-246.08517,-244.6424)">
</g>
<g
   id="g28"
   transform="translate(-246.08517,-244.6424)">
</g>
<g
   id="g30"
   transform="translate(-246.08517,-244.6424)">
</g>
<g
   id="g32"
   transform="translate(-246.08517,-244.6424)">
</g>
<g
   id="g34"
   transform="translate(-246.08517,-244.6424)">
</g>
<g
   id="g36"
   transform="translate(-246.08517,-244.6424)">
</g>
</svg>
